<?xml version="1.0" encoding="utf-8"?>
<!-- Generator: Adobe Illustrator 18.0.0, SVG Export Plug-In . SVG Version: 6.00 Build 0)  -->
<!DOCTYPE svg PUBLIC "-//W3C//DTD SVG 1.1//EN" "http://www.w3.org/Graphics/SVG/1.1/DTD/svg11.dtd">
<svg version="1.1" id="Слой_1" xmlns="http://www.w3.org/2000/svg" xmlns:xlink="http://www.w3.org/1999/xlink" x="0px" y="0px"
	 viewBox="0 260 1024 308.7" enable-background="new 0 260 1024 308.7" xml:space="preserve">
<path fill="#111111"      d="
	M1022.9,524.2v-15.2h-9.3l-7-12.5v-2.7h-36.8v1.9l-6,13.3h-10.3v15.2h-2.2v15.2h-17.9h-11.4V392H920v-11.9h-6.7l0.4-10.3l-22.9-34.7
	v-2.7h2.2V327h-2.2v-5.4h-4.3v5.4h-2.2v5.4h2.2v2.3l-23.8,35.1v10.3H855V392h-2.2v146.3h-5.4v-5.4h-24.9v3.3h-10.8v7.6H804v-6.5
	h-8.7v2.2h-16.3v-43.3h-41.2v-13h-28.2v-43.3h-6.5v-10.8h-5.4v-9.8h-8.7v-7.6h-5.4v-10.8h-8.7v-11.9h-2.2v-8.7h-3.3V366h-2.2v14.1
	h-2.2v8.7h-3.3v10.8h-8.4l-1.8,1.1l-8.2-5.9V391h-5.4v4.1l-12.2,6.3l-2.9,3.2v8.1h-4.3v5.4h-4.3v9.8l-1.1,1.5v22.2h-1.1v63.9h-8.7
	v-35.8h-41.2v9.8h-3.3v-4.3h-13v46.6h-7.6V399.6h-4.3v-31.4h-66.1v-3.3h-10.8v35.8H454V482h-7.6v9.8h-9.8v-8.7h-7.6v-11.9h-2.2
	v-84.3l-44-1.4l-15.6,1.7v47.1h-19.5v-16.9l-4.3-9.6v-53.2c0-6-4-12.1-4.4-13.5c-0.4-1.4-6.5-12.1-6.5-12.1
	c-9.9-19.5-9.6-26.2-9.6-26.2l-3.4-11v-12.5h-3.3v12.8l-3.1,11c1.1,4.3-10.2,27.3-10.2,27.3c-2.1,0.7-4.6,10.6-6.4,11.7
	c-1.8,1.1-5.3,12.5-5.3,12.5v25.5h-13v83.4H272v-13h-47.7V482h-6.5v-98.6h-3.3v-7l-16.8-29.8l0.1-2.6c0-1.6-1.3-2.8-2.8-2.8
	s-2.8,1.3-2.8,2.8l-0.4,2.6l-17.4,29.8v10.8l-6.5-6.5v-11.4H156v11.4l-9.8,5.4v6.3l-2.2,2.9l-3.3-2.9v-5.2l-6.5-6.5v-11.4h-11.9
	v11.4l-9.8,5.4v6.3l-2.2,2.4v80.7H75.9v-40.1H0v133.3h1024v-30.9v-13.5H1022.9z"/>
</svg>
